PathFileType	3	(X/Y/Z)	D:\Vicon Setup\UG\Test1\New Session\NewSession13.trc
DataRate	CameraRate	NumFrames	NumMarkers	Units	OrigDataRate	OrigDataStartFrame	OrigNumFrames
100.0	100.0	6	27	mm	100.0	497	333	
Frame#	Time	Sternum			LShoulder			RShoulder			LASIS			RASIS			RPSIS			LPSIS			RKneeLateral			RKneeMedial			RFibulaHead			RMidShank			RAnkleLateral			RAnkleMedial			RHeel			RMT5			RMT2			RToe			LKneeLateral			LKneeMedial			LFibulaHead			LMidShank			LAnkleLateral			LAnkleMedial			LHeel			LMT5			LMT2			LToe			
		X1	Y1	Z1	X2	Y2	Z2	X3	Y3	Z3	X4	Y4	Z4	X5	Y5	Z5	X6	Y6	Z6	X7	Y7	Z7	X8	Y8	Z8	X9	Y9	Z9	X10	Y10	Z10	X11	Y11	Z11	X12	Y12	Z12	X13	Y13	Z13	X14	Y14	Z14	X15	Y15	Z15	X16	Y16	Z16	X17	Y17	Z17	X18	Y18	Z18	X19	Y19	Z19	X20	Y20	Z20	X21	Y21	Z21	X22	Y22	Z22	X23	Y23	Z23	X24	Y24	Z24	X25	Y25	Z25	X26	Y26	Z26	X27	Y27	Z27	
497	4.96	-283.49503	1346.6707	-2152.5151	-107.22903	1415.059	-2267.5725	-468.6171	1396.0066	-2219.7092	-173.5517	969.08545	-2214.8796	-430.56915	986.50177	-2216.3137	-352.25394	1005.1498	-2391.4292	-222.82262	989.55225	-2395.3135	-439.9389	539.12482	-2398.5972	-309.1488	514.74219	-2377.9583	-440.02219	459.36462	-2426.4895	-352.9357	295.72571	-2448.3652	-401.28009	118.78979	-2557.0261	-322.69696	137.35933	-2502.9626	-344.42361	106.95839	-2628.4661	-447.67358	24.492266	-2426.4939	-380.61493	56.230648	-2414.8911	-380.26242	41.107418	-2376.1833	-140.78023	510.88797	-2123.822	-272.3006	496.76996	-2096.3518	-137.07797	451.6788	-2110.9062	-202.69577	326.13419	-2004.7522	-146.46547	109.21635	-1967.8971	-221.24219	151.49771	-1934.2059	-214.60478	51.038536	-2003.0913	-87.116264	116.27837	-1827.7853	-146.22684	155.26363	-1821.3733	-149.37941	168.80911	-1785.0361
498	4.97	-281.70197	1343.74	-2137.2937	-104.92689	1411.6068	-2252.094	-466.88025	1393.8147	-2204.6021	-172.68636	965.89838	-2198.9968	-430.19525	984.32867	-2201.9983	-349.93201	1002.128	-2376.7429	-220.55302	986.12012	-2379.9155	-439.95291	538.91315	-2388.0977	-309.48843	513.98724	-2366.719	-440.19769	459.56516	-2417.0442	-353.52878	296.08435	-2442.053	-401.71246	121.31783	-2554.8257	-323.15347	138.88412	-2500.3945	-344.92865	110.88592	-2626.2998	-447.80115	24.119587	-2426.4062	-380.86929	55.958111	-2414.2202	-380.2193	40.870777	-2376.2258	-140.52823	508.69757	-2108.3237	-272.43106	493.51932	-2084.9431	-137.16216	449.03046	-2095.4485	-202.24463	325.11508	-1987.3254	-147.0271	108.091	-1946.8302	-221.47162	151.73256	-1913.7461	-215.45169	49.708286	-1980.8311	-88.857597	117.19895	-1805.8798	-147.04539	157.44496	-1801.3545	-150.44687	171.92747	-1765.5157
499	4.98	-279.66702	1341.1378	-2121.9189	-102.75862	1408.3075	-2236.5764	-464.65485	1391.6604	-2189.4424	-171.97632	962.87561	-2183.1724	-429.76657	982.23682	-2187.4929	-347.60019	999.48743	-2362.5405	-218.2813	983.10675	-2364.3525	-440.05591	538.43787	-2376.6599	-309.88751	512.64417	-2354.7498	-440.44138	459.53857	-2406.7124	-353.9574	296.37137	-2435.3516	-402.3494	124.10299	-2552.3572	-323.67081	140.52028	-2497.5173	-345.54803	115.15129	-2623.9041	-447.95825	23.817776	-2426.2498	-381.005	55.632504	-2413.4231	-380.34094	40.830742	-2376.1792	-140.04305	506.87991	-2091.1072	-272.64023	493.2175	-2070.3354	-136.8837	446.31351	-2079.4045	-202.14499	323.17386	-1970.9303	-148.14966	105.53824	-1929.0923	-221.88806	150.65533	-1897.5626	-216.88269	47.965065	-1963.8019	-91.11364	114.47509	-1787.6743	-148.5085	156.15448	-1784.59	-152.55946	171.40866	-1748.9766
500	4.99	-277.4679	1338.7679	-2106.416	-99.676941	1405.4246	-2220.7793	-461.8869	1389.8026	-2174.2012	-171.19859	960.21924	-2167.1746	-429.27579	980.10181	-2172.7839	-345.34625	997.01422	-2347.3374	-216.0799	980.58838	-2348.825	-440.17624	537.5202	-2364.301	-310.42816	510.75925	-2341.7354	-440.76724	459.1235	-2395.5334	-354.26849	296.79291	-2428.1646	-403.22025	127.18327	-2549.5579	-324.2536	142.27507	-2494.3438	-346.26181	119.80912	-2621.1643	-447.92706	23.372143	-2426.2056	-381.1387	55.320774	-2412.5854	-380.34494	40.773941	-2376.2166	-139.62328	504.84293	-2073.2681	-272.76526	493.99655	-2052.9399	-136.54555	443.98917	-2062.7617	-202.66116	320.44739	-1955.5972	-149.4111	102.21967	-1915.8484	-223.13885	147.25858	-1884.5771	-217.78052	47.126312	-1952.0725	-93.844391	108.97004	-1773.2046	-151.23616	151.27477	-1770.6934	-155.37285	166.31595	-1735.2953
501	5	-275.0079	1336.6257	-2090.7859	-97.019051	1402.5425	-2205.0784	-459.17151	1388.3376	-2158.7905	-170.33951	958.01727	-2150.9431	-428.53549	978.05939	-2157.813	-343.24304	994.82092	-2331.6294	-214.11374	978.5932	-2333.0725	-440.2175	536.14197	-2350.97	-310.9747	508.31161	-2327.6248	-441.02545	458.28964	-2383.3872	-354.69983	296.83853	-2420.3616	-403.86584	130.30113	-2546.322	-324.92139	144.13821	-2490.7234	-346.96613	124.92085	-2617.9658	-448.0571	23.094362	-2426.0029	-381.23947	55.027161	-2411.687	-380.34137	40.722248	-2376.2354	-139.16663	503.18466	-2055.7307	-272.36002	493.95724	-2033.7754	-136.10101	442.37448	-2045.5825	-203.85072	317.05057	-1941.5646	-151.08577	99.69632	-1905.8667	-225.11145	142.79247	-1873.8905	-217.95979	48.838177	-1946.5106	-97.718994	100.99287	-1763.3313	-155.58748	143.06648	-1759.6565	-160.31383	156.85612	-1723.9443
502	5.01	-272.35019	1334.7751	-2075.0696	-94.221855	1399.9048	-2189.2073	-456.28488	1387.1742	-2143.2642	-169.32664	956.29285	-2134.333	-427.63773	976.15845	-2142.564	-341.36377	992.81055	-2315.7888	-212.23949	977.18079	-2317.2021	-440.25824	534.39178	-2336.6311	-311.4357	505.65475	-2312.478	-441.36545	457.19104	-2370.2222	-355.09235	296.8147	-2411.8081	-404.63812	133.82245	-2542.6206	-325.54178	146.11101	-2486.5466	-347.55835	130.60609	-2614.1404	-448.23785	22.930382	-2425.7246	-381.25159	54.726189	-2410.657	-380.29858	40.691673	-2376.2529	-138.58063	502.75385	-2037.4105	-271.63043	493.30545	-2015.0227	-135.43581	441.16928	-2028.0376	-205.33076	312.83124	-1929.4722	-153.05255	95.568497	-1900.1816	-228.00327	136.632	-1867.6511	-218.65588	50.639416	-1942.5687	-101.78477	91.338165	-1757.5193	-160.75835	132.18013	-1751.2568	-165.96393	144.0766	-1714.9985
